<?xml version="1.0" standalone="no"?>
<!DOCTYPE svg PUBLIC "-//W3C//DTD SVG 20010904//EN"
 "http://www.w3.org/TR/2001/REC-SVG-20010904/DTD/svg10.dtd">
<svg version="1.0" xmlns="http://www.w3.org/2000/svg"
 width="1601.000000pt" height="1601.000000pt" viewBox="0 0 1601.000000 1601.000000"
 preserveAspectRatio="xMidYMid meet">
<metadata>
Created by potrace 1.14, written by Peter Selinger 2001-2017
</metadata>
<g transform="translate(0.000000,1601.000000) scale(0.100000,-0.100000)"
fill="#000000" stroke="none">
<path d="M9078 13395 c-2 -2 -50 -6 -108 -10 -151 -10 -281 -23 -310 -30 -8
-2 -40 -7 -70 -10 -48 -5 -153 -22 -255 -41 -80 -14 -302 -66 -405 -94 -63
-18 -128 -36 -145 -40 -16 -4 -93 -29 -170 -54 -651 -220 -1236 -550 -1768
-998 -154 -131 -454 -427 -584 -578 -430 -501 -759 -1058 -985 -1670 -61 -164
-135 -401 -163 -518 -3 -9 -14 -55 -25 -102 -22 -92 -46 -207 -54 -255 -3 -16
-12 -67 -20 -112 -8 -45 -18 -108 -22 -140 -3 -32 -8 -66 -10 -77 -2 -10 -6
-51 -10 -90 -3 -39 -7 -82 -10 -96 -8 -54 -17 -255 -18 -444 l-2 -199 -99 -42
c-662 -273 -1191 -809 -1459 -1478 -49 -120 -104 -290 -120 -367 -3 -14 -10
-43 -15 -65 -6 -22 -13 -56 -16 -75 -3 -19 -10 -60 -15 -90 -17 -98 -20 -142
-26 -315 -4 -93 -9 -173 -13 -176 -3 -3 -37 -18 -76 -34 -164 -67 -296 -155
-430 -290 -255 -254 -400 -598 -398 -945 5 -848 746 -1472 1583 -1334 46 8
200 50 237 66 15 6 30 12 33 13 21 7 68 27 80 33 8 5 42 24 75 42 70 38 139
86 211 146 l51 43 107 -56 c317 -162 647 -257 1011 -289 143 -13 438 -7 545
10 14 2 48 8 75 12 28 4 52 8 55 9 3 1 25 5 50 9 308 53 676 201 960 386 117
76 308 222 323 247 6 10 46 -7 170 -71 139 -72 213 -107 402 -191 161 -71 593
-217 738 -250 12 -2 49 -11 82 -20 58 -15 270 -59 330 -69 17 -3 41 -8 55 -10
23 -5 47 -8 133 -21 75 -10 105 -14 162 -20 33 -4 76 -8 95 -11 198 -23 849
-23 990 0 14 3 52 7 85 11 101 10 149 16 175 20 14 3 43 7 65 11 22 3 47 7 55
9 8 2 35 7 60 10 170 24 545 120 788 201 655 219 1273 571 1792 1019 154 133
276 251 465 449 116 121 347 414 478 606 200 295 409 677 517 950 12 30 27 66
33 80 5 14 11 30 13 35 2 6 22 60 45 120 47 126 128 382 159 506 33 134 68
291 75 339 3 25 8 52 10 60 9 32 19 98 29 185 4 33 9 67 11 75 4 14 8 55 20
168 15 153 19 256 19 507 1 292 -6 424 -30 613 -3 26 -7 58 -8 72 0 14 -5 24
-11 23 -10 -3 -231 -152 -655 -443 -331 -226 -366 -249 -385 -244 -20 6 -223
82 -490 184 -269 103 -570 218 -587 225 -13 5 -16 2 -14 -12 14 -69 21 -219
21 -423 0 -212 -3 -264 -21 -392 -3 -21 -6 -50 -8 -65 -2 -15 -10 -57 -16 -93
-7 -36 -14 -72 -15 -80 -1 -8 -5 -28 -9 -45 -4 -16 -16 -66 -27 -110 -69 -280
-224 -648 -374 -885 -144 -228 -262 -379 -440 -564 -255 -265 -540 -474 -874
-641 -82 -41 -152 -75 -155 -75 -4 0 -25 -9 -49 -19 -94 -43 -355 -130 -432
-145 -5 -1 -19 -5 -30 -9 -11 -3 -31 -8 -45 -11 -14 -2 -56 -11 -95 -19 -72
-16 -104 -21 -190 -33 -27 -3 -58 -8 -67 -9 -128 -25 -622 -25 -773 -1 -17 3
-59 10 -95 16 -36 5 -76 12 -90 14 -14 2 -36 7 -50 10 -14 3 -37 8 -51 10 -60
10 -264 68 -390 112 -182 63 -419 170 -501 227 -16 10 -28 15 -28 11 0 -4 -8
0 -17 8 -10 8 -46 32 -80 52 -35 21 -63 40 -63 44 -5 181 -17 338 -27 354 -2
4 -57 -28 -123 -72 -65 -44 -123 -80 -130 -80 -11 0 -43 27 -144 121 l-50 46
39 34 c21 19 57 51 79 71 23 21 86 77 142 125 56 48 106 95 111 103 8 11 0 48
-29 135 -21 66 -43 129 -48 140 -5 11 -21 49 -36 85 -25 62 -104 228 -124 260
-5 8 -35 57 -66 108 -56 93 -177 261 -244 337 -66 77 -266 271 -340 331 -125
101 -236 177 -395 267 -38 22 -72 41 -74 43 -21 18 -18 601 3 665 2 8 7 39 10
69 3 30 10 80 16 110 6 30 13 66 15 80 69 381 247 814 478 1160 323 484 737
850 1258 1111 76 38 140 69 144 69 4 0 21 7 38 15 70 32 315 119 367 130 8 2
60 15 115 29 100 25 177 41 249 52 21 3 47 7 58 9 22 5 75 11 208 24 86 9 504
7 550 -2 14 -3 54 -8 90 -11 36 -3 101 -12 145 -20 44 -9 91 -17 105 -20 277
-47 680 -197 956 -356 394 -227 684 -480 989 -861 7 -9 46 -65 87 -125 195
-283 331 -570 437 -920 l22 -72 47 -12 c26 -6 56 -14 67 -16 11 -2 124 -29
250 -59 203 -50 422 -101 465 -110 8 -2 35 -8 60 -15 25 -7 52 -13 60 -15 8
-2 55 -12 103 -24 104 -25 102 -25 119 -8 32 30 196 176 222 198 16 13 36 31
45 40 9 9 43 40 76 69 33 29 98 88 145 129 130 117 326 292 390 348 l34 31
-13 53 c-21 83 -84 281 -136 424 -185 511 -494 1060 -834 1485 -45 56 -132
161 -141 170 -3 3 -43 48 -90 100 -109 121 -351 358 -460 450 -47 40 -96 82
-110 93 -14 12 -43 35 -65 52 -155 119 -216 165 -234 174 -11 6 -25 17 -33 24
-7 7 -76 53 -153 103 -437 284 -914 504 -1419 653 -72 22 -147 43 -166 47 -19
4 -39 9 -45 10 -58 16 -161 39 -255 59 -105 21 -148 29 -227 40 -15 2 -59 8
-98 14 -108 16 -154 21 -235 27 -41 3 -88 8 -105 10 -34 5 -642 14 -647 9z
m-4964 -6732 c9 -32 26 -92 37 -133 29 -107 135 -420 174 -515 18 -44 45 -109
60 -145 43 -104 198 -417 255 -515 29 -49 61 -105 71 -123 119 -207 339 -512
545 -752 96 -113 387 -410 472 -482 l42 -36 -47 -30 c-147 -94 -364 -176 -558
-211 -348 -64 -725 -3 -1045 168 -114 60 -150 89 -151 119 -1 57 -6 113 -10
116 -2 3 -26 -11 -53 -29 -37 -25 -52 -30 -61 -22 -6 7 -28 27 -49 45 l-38 33
22 19 c12 10 50 45 85 76 l63 57 -30 86 c-98 280 -286 525 -521 680 -55 37
-98 73 -101 85 -3 12 -4 98 -2 191 5 256 48 438 156 660 64 134 116 216 201
321 62 77 180 195 244 244 22 17 47 36 55 43 16 13 162 107 166 107 1 0 10
-26 18 -57z m-1844 -2006 c0 -15 71 -241 98 -312 52 -136 120 -279 186 -390
32 -54 114 -183 128 -200 4 -5 40 -53 80 -105 39 -52 129 -153 199 -225 89
-89 125 -132 116 -137 -163 -111 -373 -159 -572 -132 -121 16 -284 88 -380
167 -27 23 -56 46 -63 52 -30 24 -113 135 -145 195 -89 163 -115 335 -83 542
7 48 48 161 79 218 62 117 155 219 269 296 66 45 88 53 88 31z"/>
</g>
</svg>
